<svg id="visual" viewBox="0 0 960 200" width="960" height="200" xmlns="http://www.w3.org/2000/svg" xmlns:xlink="http://www.w3.org/1999/xlink" version="1.1"><rect x="0" y="0" width="960" height="200" fill="#FFFFFF"></rect><path d="M0 64L22.8 66.2C45.7 68.3 91.3 72.7 137 77C182.7 81.3 228.3 85.7 274 83.2C319.7 80.7 365.3 71.3 411.2 71.3C457 71.3 503 80.7 548.8 85C594.7 89.3 640.3 88.7 686 79.2C731.7 69.7 777.3 51.3 823 42C868.7 32.7 914.3 32.3 937.2 32.2L960 32L960 201L937.2 201C914.3 201 868.7 201 823 201C777.3 201 731.7 201 686 201C640.3 201 594.7 201 548.8 201C503 201 457 201 411.2 201C365.3 201 319.7 201 274 201C228.3 201 182.7 201 137 201C91.3 201 45.7 201 22.8 201L0 201Z" fill="#fff3cb"></path><path d="M0 118L22.8 116C45.7 114 91.3 110 137 106.5C182.7 103 228.3 100 274 97.8C319.7 95.7 365.3 94.3 411.2 91C457 87.7 503 82.3 548.8 80.7C594.7 79 640.3 81 686 87.3C731.7 93.7 777.3 104.3 823 105.2C868.7 106 914.3 97 937.2 92.5L960 88L960 201L937.2 201C914.3 201 868.7 201 823 201C777.3 201 731.7 201 686 201C640.3 201 594.7 201 548.8 201C503 201 457 201 411.2 201C365.3 201 319.7 201 274 201C228.3 201 182.7 201 137 201C91.3 201 45.7 201 22.8 201L0 201Z" fill="#ffeeb7"></path><path d="M0 91L22.8 97.5C45.7 104 91.3 117 137 121.2C182.7 125.3 228.3 120.7 274 119.7C319.7 118.7 365.3 121.3 411.2 124.8C457 128.3 503 132.7 548.8 130.2C594.7 127.7 640.3 118.3 686 118.3C731.7 118.3 777.3 127.7 823 131.5C868.7 135.3 914.3 133.7 937.2 132.8L960 132L960 201L937.2 201C914.3 201 868.7 201 823 201C777.3 201 731.7 201 686 201C640.3 201 594.7 201 548.8 201C503 201 457 201 411.2 201C365.3 201 319.7 201 274 201C228.3 201 182.7 201 137 201C91.3 201 45.7 201 22.8 201L0 201Z" fill="#ffe9a3"></path><path d="M0 138L22.8 135.8C45.7 133.7 91.3 129.3 137 129.3C182.7 129.3 228.3 133.7 274 134.3C319.7 135 365.3 132 411.2 135.2C457 138.3 503 147.7 548.8 150.3C594.7 153 640.3 149 686 149.5C731.7 150 777.3 155 823 151.3C868.7 147.7 914.3 135.3 937.2 129.2L960 123L960 201L937.2 201C914.3 201 868.7 201 823 201C777.3 201 731.7 201 686 201C640.3 201 594.7 201 548.8 201C503 201 457 201 411.2 201C365.3 201 319.7 201 274 201C228.3 201 182.7 201 137 201C91.3 201 45.7 201 22.8 201L0 201Z" fill="#ffe48f"></path><path d="M0 171L22.8 168.5C45.7 166 91.3 161 137 158.5C182.7 156 228.3 156 274 158.5C319.7 161 365.3 166 411.2 168.2C457 170.3 503 169.7 548.8 169.5C594.7 169.3 640.3 169.7 686 166.5C731.7 163.3 777.3 156.7 823 156.3C868.7 156 914.3 162 937.2 165L960 168L960 201L937.2 201C914.3 201 868.7 201 823 201C777.3 201 731.7 201 686 201C640.3 201 594.7 201 548.8 201C503 201 457 201 411.2 201C365.3 201 319.7 201 274 201C228.3 201 182.7 201 137 201C91.3 201 45.7 201 22.8 201L0 201Z" fill="#ffde7a"></path></svg>