<svg id="visual" viewBox="0 0 1920 200" width="1920" height="200" xmlns="http://www.w3.org/2000/svg" xmlns:xlink="http://www.w3.org/1999/xlink" version="1.1"><rect x="0" y="0" width="1920" height="200" fill="#FFFFFF"></rect><path d="M0 64L45.7 66.2C91.3 68.3 182.7 72.7 274.2 77C365.7 81.3 457.3 85.7 548.8 83.2C640.3 80.7 731.7 71.3 823 71.3C914.3 71.3 1005.7 80.7 1097 85C1188.3 89.3 1279.7 88.7 1371.2 79.2C1462.7 69.7 1554.3 51.3 1645.8 42C1737.3 32.7 1828.7 32.3 1874.3 32.2L1920 32L1920 201L1874.3 201C1828.7 201 1737.3 201 1645.8 201C1554.3 201 1462.7 201 1371.2 201C1279.7 201 1188.3 201 1097 201C1005.7 201 914.3 201 823 201C731.7 201 640.3 201 548.8 201C457.3 201 365.7 201 274.2 201C182.7 201 91.3 201 45.7 201L0 201Z" fill="#fff3cb"></path><path d="M0 118L45.7 116C91.3 114 182.7 110 274.2 106.5C365.7 103 457.3 100 548.8 97.8C640.3 95.7 731.7 94.3 823 91C914.3 87.7 1005.7 82.3 1097 80.7C1188.3 79 1279.7 81 1371.2 87.3C1462.7 93.7 1554.3 104.3 1645.8 105.2C1737.3 106 1828.7 97 1874.3 92.5L1920 88L1920 201L1874.3 201C1828.7 201 1737.3 201 1645.8 201C1554.3 201 1462.7 201 1371.2 201C1279.7 201 1188.3 201 1097 201C1005.7 201 914.3 201 823 201C731.7 201 640.3 201 548.8 201C457.3 201 365.7 201 274.2 201C182.7 201 91.3 201 45.7 201L0 201Z" fill="#ffeeb7"></path><path d="M0 91L45.7 97.5C91.3 104 182.7 117 274.2 121.2C365.7 125.3 457.3 120.7 548.8 119.7C640.3 118.7 731.7 121.3 823 124.8C914.3 128.3 1005.7 132.7 1097 130.2C1188.3 127.7 1279.7 118.3 1371.2 118.3C1462.7 118.3 1554.3 127.7 1645.8 131.5C1737.3 135.3 1828.7 133.7 1874.3 132.8L1920 132L1920 201L1874.3 201C1828.7 201 1737.3 201 1645.8 201C1554.3 201 1462.7 201 1371.2 201C1279.7 201 1188.3 201 1097 201C1005.7 201 914.3 201 823 201C731.7 201 640.3 201 548.8 201C457.3 201 365.7 201 274.2 201C182.7 201 91.3 201 45.7 201L0 201Z" fill="#ffe9a3"></path><path d="M0 138L45.7 135.8C91.3 133.7 182.7 129.3 274.2 129.3C365.7 129.3 457.3 133.7 548.8 134.3C640.3 135 731.7 132 823 135.2C914.3 138.3 1005.7 147.7 1097 150.3C1188.3 153 1279.7 149 1371.2 149.5C1462.7 150 1554.3 155 1645.8 151.3C1737.3 147.7 1828.7 135.3 1874.3 129.2L1920 123L1920 201L1874.3 201C1828.7 201 1737.3 201 1645.8 201C1554.3 201 1462.7 201 1371.2 201C1279.7 201 1188.3 201 1097 201C1005.7 201 914.3 201 823 201C731.7 201 640.3 201 548.8 201C457.3 201 365.7 201 274.2 201C182.7 201 91.3 201 45.7 201L0 201Z" fill="#ffe48f"></path><path d="M0 171L45.7 168.5C91.3 166 182.7 161 274.2 158.5C365.7 156 457.3 156 548.8 158.5C640.3 161 731.7 166 823 168.2C914.3 170.3 1005.7 169.7 1097 169.5C1188.3 169.3 1279.7 169.7 1371.2 166.5C1462.7 163.3 1554.3 156.7 1645.8 156.3C1737.3 156 1828.7 162 1874.3 165L1920 168L1920 201L1874.3 201C1828.7 201 1737.3 201 1645.8 201C1554.3 201 1462.7 201 1371.2 201C1279.7 201 1188.3 201 1097 201C1005.7 201 914.3 201 823 201C731.7 201 640.3 201 548.8 201C457.3 201 365.7 201 274.2 201C182.7 201 91.3 201 45.7 201L0 201Z" fill="#ffde7a"></path></svg>